# Contact Machine blueprint — generated by contact.bada
o ring_precession
v -2.223887680335158e-12 -1.259052853578535e-12 10.499999999999993
v -0.9645987354409499 1.7037880801512504 10.628327079392841
v -1.912692919078987 3.378423873873073 11.011112605663973
v -2.8280603965729205 4.9952538984368715 11.641807012330696
v -3.6950389765950176 6.526613743852387 12.509618943233413
v -4.498794415269227 7.946301418591399 13.599699895631478
v -5.225574234196725 9.23002567292734 14.893398282201785
v -5.862943029174228 10.355821628952915 16.36857856486919
v -6.399995243407654 11.304426605730917 18.00000000000002
v -6.827541764612474 12.059609709105704 19.759748514523743
v -7.138267153272566 12.60844954680219 21.617714323462483
v -7.32685481183862 12.941555317030272 23.542107116700105
v -7.3900779531861875 13.053227487706959 25.500000000002554
v -7.326854811838039 12.941555317030598 27.457892883299895
v -7.138267153271416 12.608449546802845 29.382285676537517
v -6.827541764610766 12.05960970910666 31.24025148547625
v -6.399995243405433 11.304426605732184 32.99999999999997
v -5.862943029171516 10.355821628954441 34.63142143513081
v -5.22557423419358 9.23002567292912 36.10660171779821
v -4.498794415265699 7.946301418593397 37.400300104368526
v -3.695038976591152 6.526613743854542 38.49038105676659
v -2.8280603965687674 4.9952538984391195 39.3581929876693
v -1.9126929190745492 3.378423873875255 39.98888739433603
v -0.9645987354361047 1.703788080152978 40.37167292060715
v 3.4829405339136926e-12 -9.648348267566224e-13 40.50000000000001
v 0.9645987354405146 -1.7037880801504814 40.37167292060716
v 1.912692919078845 -3.3784238738728227 39.98888739433603
v 2.828060396572876 -4.9952538984367925 39.358192987669305
v 3.6950389765950025 -6.52661374385236 38.49038105676659
v 4.498794415269227 -7.946301418591399 37.40030010436853
v 5.225574234196722 -9.230025672927335 36.10660171779822
v 5.8629430291742235 -10.35582162895291 34.63142143513081
v 6.3999952434076555 -11.304426605730919 33.00000000000001
v 6.827541764612471 -12.059609709105699 31.240251485476342
v 7.138267153272567 -12.608449546802195 29.38228567653781
v 7.3268548118386185 -12.94155531703027 27.457892883300772
v 7.3900779531861875 -13.053227487706959 25.5
v 7.326854811838041 -12.9415553170306 23.542107116699228
v 7.138267153271418 -12.608449546802849 21.61771432346219
v 6.82754176461077 -12.059609709106665 19.759748514523658
v 6.39999524340543 -11.304426605732177 17.999999999999993
v 5.862943029171524 -10.355821628954455 16.368578564869196
v 5.225574234193579 -9.230025672929118 14.893398282201787
v 4.498794415265699 -7.946301418593399 13.599699895631469
v 3.69503897659117 -6.526613743854574 12.50961894323342
v 2.8280603965688087 -4.995253898439193 11.641807012330691
v 1.9126929190746953 -3.378423873875514 11.011112605663977
v 0.9645987354365391 -1.703788080153745 10.62832707939284
l 1 2
l 2 3
l 3 4
l 4 5
l 5 6
l 6 7
l 7 8
l 8 9
l 9 10
l 10 11
l 11 12
l 12 13
l 13 14
l 14 15
l 15 16
l 16 17
l 17 18
l 18 19
l 19 20
l 20 21
l 21 22
l 22 23
l 23 24
l 24 25
l 25 26
l 26 27
l 27 28
l 28 29
l 29 30
l 30 31
l 31 32
l 32 33
l 33 34
l 34 35
l 35 36
l 36 37
l 37 38
l 38 39
l 39 40
l 40 41
l 41 42
l 42 43
l 43 44
l 44 45
l 45 46
l 46 47
l 47 48
l 48 1
o ring_nutation
v -5.6695962190952685 -4.909753426845385 25.5
v -5.980624861081708 -4.452574997458953 24.68962837968365
v -6.189323353552568 -3.9192117753789875 23.893122442468375
v -6.292120807439519 -3.318789753211499 23.124110625773092
v -6.28725832980572 -2.661582318224209 22.395750934991813
v -6.174819118991606 -1.9588344718420654 21.72050580637326
v -5.956727041068262 -1.2225704245551938 21.109928871281422
v -5.636713711955493 -0.4653878583436204 20.57446727035962
v -5.2202546484388685 0.2997576231541097 20.123282900057635
v -4.714475580559418 1.0597741686111752 19.76409565004327
v -4.1280305283969705 1.801657684218437 19.503051313749797
v -3.470953729387222 2.512714337334969 19.344616432146353
v -2.7544879497370607 3.180777751484035 19.291501869983623
v -1.9908921175804744 3.7944171764253487 19.344616432146353
v -1.1932315693109967 4.343133071468147 19.503051313749797
v -0.3751544980644641 4.817536755514019 19.764095650043274
v 0.44934157065637637 5.209511049999478 20.12328290005763
v 1.2661492805222574 5.512349166070097 20.574467270359623
v 2.0612928251554856 5.7208694595973295 21.10992887128142
v 2.821167078051963 5.831504090546178 21.72050580637326
v 3.5327703800676997 5.842360069707399 22.395750934991824
v 4.183927001411482 5.753251648267683 23.12411062577313
v 4.76349547175743 5.565703496023375 23.893122442468496
v 5.261559213891227 5.282924613857484 24.689628379684017
v 5.669596219095737 4.909753426844843 25.50000000000106
v 5.980624861081545 4.45257499745914 26.310371620315983
v 6.189323353552515 3.9192117753790496 27.106877557531504
v 6.2921208074395025 3.318789753211518 27.87588937422687
v 6.287258329805715 2.661582318224215 28.604249065008176
v 6.17481911899161 1.9588344718420685 29.27949419362674
v 5.956727041068263 1.222570424555197 29.890071128718574
v 5.636713711955492 0.4653878583436226 30.425532729640377
v 5.22025464843888 -0.2997576231541008 30.876717099942365
v 4.71447558055945 -1.0597741686111464 31.235904349956726
v 4.128030528397081 -1.8016576842183423 31.496948686250203
v 3.4709537293875536 -2.5127143373346823 31.655383567853647
v 2.7544879497380266 -3.1807777514831983 31.708498130016377
v 1.9908921175801426 -3.7944171764256356 31.655383567853647
v 1.193231569310887 -4.343133071468242 31.496948686250203
v 0.37515449806443035 -4.81753675551405 31.23590434995673
v -0.4493415706563919 -5.209511049999488 30.87671709994236
v -1.2661492805222507 -5.512349166070097 30.42553272964038
v -2.061292825155485 -5.720869459597328 29.890071128718578
v -2.821167078051966 -5.831504090546182 29.27949419362674
v -3.5327703800676895 -5.842360069707404 28.60424906500819
v -4.183927001411469 -5.753251648267704 27.875889374226904
v -4.763495471757374 -5.565703496023437 27.10687755753163
v -5.261559213891067 -5.282924613857672 26.310371620316346
l 49 50
l 50 51
l 51 52
l 52 53
l 53 54
l 54 55
l 55 56
l 56 57
l 57 58
l 58 59
l 59 60
l 60 61
l 61 62
l 62 63
l 63 64
l 64 65
l 65 66
l 66 67
l 67 68
l 68 69
l 69 70
l 70 71
l 71 72
l 72 73
l 73 74
l 74 75
l 75 76
l 76 77
l 77 78
l 78 79
l 79 80
l 80 81
l 81 82
l 82 83
l 83 84
l 84 85
l 85 86
l 86 87
l 87 88
l 88 89
l 89 90
l 90 91
l 91 92
l 92 93
l 93 94
l 94 95
l 95 96
l 96 49
o ring_spin
v 4.168664726565354 3.609977701355563 24.3905314816521
v 4.613639786602592 3.0240707372552293 24.400023138627958
v 4.979674190748452 2.3864210844096516 24.428335704673096
v 5.260504988864089 1.707939105168901 24.47498474393275
v 5.451327088132739 1.0002338143085319 24.53917207841164
v 5.54887546953003 0.2754142455681352 24.61979944502073
v 5.551481053204741 -0.4541177372731826 24.71548728716321
v 5.459099256897787 -1.1758796397245352 24.824598359330345
v 5.273310758757047 -1.8775219155247787 24.945265740826052
v 4.997294451496009 -2.5470392708029874 25.07542477929762
v 4.635773050658058 -3.1729760779850893 25.21284841750991
v 4.194932287644134 -3.744622384757796 25.35518529891209
v 3.6823150701333547 -4.252197164322095 25.50000000000019
v 3.1066924208433866 -4.687015671471844 25.64481470108791
v 2.477913402893811 -5.041638040997427 25.78715158249009
v 1.8067365996134437 -5.309996585835307 25.924575220702376
v 1.1046460321917086 -5.48749961688033 26.054734259173948
v 0.3836546648934398 -5.5711100080581915 26.175401640669655
v -0.3439011400903125 -5.559397162394671 26.28451271283679
v -1.0655727012197098 -5.452561489926484 26.38020055497927
v -1.7690120179986826 -5.252430978630004 26.46082792158836
v -2.442183048686911 -4.962429917040166 26.52501525606725
v -3.0735676503110825 -4.587520303724233 26.571664295326904
v -3.652362657284585 -4.134116946110545 26.599976861372042
v -4.168664726565981 -3.609977701354839 26.6094685183479
v -4.613639786602375 -3.02407073725548 26.599976861372042
v -4.979674190748381 -2.3864210844097333 26.571664295326904
v -5.260504988864067 -1.7079391051689268 26.52501525606725
v -5.451327088132732 -1.0002338143085399 26.46082792158836
v -5.548875469530032 -0.275414245568137 26.380200554979275
v -5.551481053204741 0.4541177372731795 26.284512712836793
v -5.459099256897785 1.1758796397245335 26.175401640669655
v -5.273310758757054 1.877521915524772 26.05473425917395
v -4.997294451496031 2.5470392708029657 25.924575220702383
v -4.6357730506581385 3.1729760779850205 25.78715158249011
v -4.194932287644377 3.744622384757584 25.644814701087974
v -3.682315070134065 4.252197164321481 25.5
v -3.1066924208431432 4.687015671472056 25.355185298912026
v -2.47791340289373 5.041638040997497 25.21284841750989
v -1.8067365996134204 5.309996585835331 25.075424779297617
v -1.1046460321916975 5.487499616880337 24.94526574082605
v -0.38365466489344646 5.571110008058195 24.824598359330345
v 0.34390114009031203 5.559397162394671 24.71548728716321
v 1.0655727012197116 5.452561489926485 24.619799445020725
v 1.7690120179986724 5.252430978630011 24.53917207841164
v 2.4421830486868927 4.9624299170401915 24.47498474393275
v 3.0735676503110088 4.587520303724316 24.428335704673096
v 3.6523626572843697 4.1341169461107965 24.400023138627958
l 97 98
l 98 99
l 99 100
l 100 101
l 101 102
l 102 103
l 103 104
l 104 105
l 105 106
l 106 107
l 107 108
l 108 109
l 109 110
l 110 111
l 111 112
l 112 113
l 113 114
l 114 115
l 115 116
l 116 117
l 117 118
l 118 119
l 119 120
l 120 121
l 121 122
l 122 123
l 123 124
l 124 125
l 125 126
l 126 127
l 127 128
l 128 129
l 129 130
l 130 131
l 131 132
l 132 133
l 133 134
l 134 135
l 135 136
l 136 137
l 137 138
l 138 139
l 139 140
l 140 141
l 141 142
l 142 143
l 143 144
l 144 97
o pod
v 0.75 0 38.04903810567666
v 0.6495190528383291 0.3749999999999999 38.04903810567666
v 0.3749999999999988 0.6495190528383288 38.04903810567666
v -1.2777803511217044e-13 0.75 38.04903810567666
v -0.37499999999999845 0.6495190528383291 38.04903810567666
v -0.6495190528383291 0.37499999999999845 38.04903810567666
v -0.75 -1.2777803511217044e-13 38.04903810567666
v -0.6495190528383291 -0.37499999999999845 38.04903810567666
v -0.37500000000000017 -0.6495190528383289 38.04903810567666
v 0 -0.75 38.04903810567666
v 0.37500000000000017 -0.6495190528383287 38.04903810567666
v 0.6495190528383287 -0.37500000000000017 38.04903810567666
v 1.299038105676658 0 37.5
v 1.1250000000000002 0.6495190528383288 37.5
v 0.6495190528383269 1.1249999999999996 37.5
v -2.2131804890559918e-13 1.299038105676658 37.5
v -0.6495190528383263 1.1250000000000002 37.5
v -1.1250000000000002 0.6495190528383263 37.5
v -1.299038105676658 -2.2131804890559918e-13 37.5
v -1.1250000000000002 -0.6495190528383263 37.5
v -0.6495190528383293 -1.1249999999999998 37.5
v 0 -1.299038105676658 37.5
v 0.6495190528383293 -1.1249999999999996 37.5
v 1.1249999999999996 -0.6495190528383293 37.5
v 1.5000000000000009 0 36.749999999999744
v 1.2990381056766587 0.7500000000000001 36.749999999999744
v 0.7499999999999979 1.299038105676658 36.749999999999744
v -2.5555607022434097e-13 1.5000000000000009 36.749999999999744
v -0.7499999999999972 1.2990381056766587 36.749999999999744
v -1.2990381056766587 0.7499999999999972 36.749999999999744
v -1.5000000000000009 -2.5555607022434097e-13 36.749999999999744
v -1.2990381056766587 -0.7499999999999972 36.749999999999744
v -0.7500000000000008 -1.2990381056766582 36.749999999999744
v 0 -1.5000000000000009 36.749999999999744
v 0.7500000000000008 -1.299038105676658 36.749999999999744
v 1.299038105676658 -0.7500000000000008 36.749999999999744
v 1.2990381056766587 0 36
v 1.1250000000000009 0.6495190528383291 36
v 0.6495190528383272 1.1250000000000002 36
v -2.2131804890559928e-13 1.2990381056766587 36
v -0.6495190528383267 1.1250000000000009 36
v -1.1250000000000009 0.6495190528383267 36
v -1.2990381056766587 -2.2131804890559928e-13 36
v -1.1250000000000009 -0.6495190528383267 36
v -0.6495190528383297 -1.1250000000000004 36
v 0 -1.2990381056766587 36
v 0.6495190528383297 -1.125 36
v 1.125 -0.6495190528383297 36
v 0.7499999999999971 0 35.45096189432334
v 0.6495190528383266 0.37499999999999845 35.45096189432334
v 0.37499999999999734 0.6495190528383262 35.45096189432334
v -1.2777803511216996e-13 0.7499999999999971 35.45096189432334
v -0.374999999999997 0.6495190528383266 35.45096189432334
v -0.6495190528383266 0.374999999999997 35.45096189432334
v -0.7499999999999971 -1.2777803511216996e-13 35.45096189432334
v -0.6495190528383266 -0.374999999999997 35.45096189432334
v -0.3749999999999987 -0.6495190528383263 35.45096189432334
v 0 -0.7499999999999971 35.45096189432334
v 0.3749999999999987 -0.6495190528383262 35.45096189432334
v 0.6495190528383262 -0.3749999999999987 35.45096189432334
v 0 0 38.25
v 0 0 35.25
l 145 146
l 145 157
l 146 147
l 146 158
l 147 148
l 147 159
l 148 149
l 148 160
l 149 150
l 149 161
l 150 151
l 150 162
l 151 152
l 151 163
l 152 153
l 152 164
l 153 154
l 153 165
l 154 155
l 154 166
l 155 156
l 155 167
l 156 145
l 156 168
l 157 158
l 157 169
l 158 159
l 158 170
l 159 160
l 159 171
l 160 161
l 160 172
l 161 162
l 161 173
l 162 163
l 162 174
l 163 164
l 163 175
l 164 165
l 164 176
l 165 166
l 165 177
l 166 167
l 166 178
l 167 168
l 167 179
l 168 157
l 168 180
l 169 170
l 169 181
l 170 171
l 170 182
l 171 172
l 171 183
l 172 173
l 172 184
l 173 174
l 173 185
l 174 175
l 174 186
l 175 176
l 175 187
l 176 177
l 176 188
l 177 178
l 177 189
l 178 179
l 178 190
l 179 180
l 179 191
l 180 169
l 180 192
l 181 182
l 181 193
l 182 183
l 182 194
l 183 184
l 183 195
l 184 185
l 184 196
l 185 186
l 185 197
l 186 187
l 186 198
l 187 188
l 187 199
l 188 189
l 188 200
l 189 190
l 189 201
l 190 191
l 190 202
l 191 192
l 191 203
l 192 181
l 192 204
l 193 194
l 194 195
l 195 196
l 196 197
l 197 198
l 198 199
l 199 200
l 200 201
l 201 202
l 202 203
l 203 204
l 204 193
l 205 145
l 206 193
l 205 146
l 206 194
l 205 147
l 206 195
l 205 148
l 206 196
l 205 149
l 206 197
l 205 150
l 206 198
l 205 151
l 206 199
l 205 152
l 206 200
l 205 153
l 206 201
l 205 154
l 206 202
l 205 155
l 206 203
l 205 156
l 206 204
o gantry
v 12.197591975467946 12.197591975467944 0
v 12.197591975467946 12.197591975467944 49.5
v -12.197591975467946 12.197591975467946 0
v -12.197591975467946 12.197591975467946 49.5
v -12.197591975467944 -12.197591975467946 0
v -12.197591975467944 -12.197591975467946 49.5
v 12.197591975467944 -12.197591975467944 0
v 12.197591975467944 -12.197591975467944 49.5
v 0 0 49.5
v 0 0 0
l 207 208
l 208 210
l 209 210
l 210 212
l 211 212
l 212 214
l 213 214
l 214 208
l 215 216
